<svg xmlns="http://www.w3.org/2000/svg" viewBox="0 0 48 48" fill="none">
  <!-- Folded paper -->
  <path d="M12 4h16l10 10v28a2 2 0 0 1-2 2H14a2 2 0 0 1-2-2V4z" fill="url(#paper)" stroke="url(#border)" stroke-width="1.5"/>
  <path d="M28 4v8a2 2 0 0 0 2 2h8" fill="url(#fold)" stroke="url(#border)" stroke-width="1.5" stroke-linejoin="round"/>
  <!-- AI sparkle -->
  <circle cx="34" cy="10" r="0.8" fill="#22d3ee"/>
  <path d="M33 30l1.5-3.5L38 25l-3.5-1.5L33 20l-1.5 3.5L28 25l3.5 1.5z" fill="#22d3ee" opacity="0.9"/>
  <path d="M22 34l1-2.5 2.5-1-2.5-1-1-2.5-1 2.5-2.5 1 2.5 1z" fill="#a78bfa" opacity="0.8"/>
  <!-- Scan lines -->
  <line x1="18" y1="19" x2="30" y2="19" stroke="#94a3b8" stroke-width="1.2" stroke-linecap="round" opacity="0.4"/>
  <line x1="18" y1="23" x2="28" y2="23" stroke="#94a3b8" stroke-width="1.2" stroke-linecap="round" opacity="0.3"/>
  <line x1="18" y1="27" x2="26" y2="27" stroke="#94a3b8" stroke-width="1.2" stroke-linecap="round" opacity="0.2"/>
  <defs>
    <linearGradient id="paper" x1="12" y1="4" x2="38" y2="44" gradientUnits="userSpaceOnUse">
      <stop offset="0" stop-color="#1e293b"/>
      <stop offset="1" stop-color="#0f172a"/>
    </linearGradient>
    <linearGradient id="fold" x1="28" y1="4" x2="38" y2="14" gradientUnits="userSpaceOnUse">
      <stop offset="0" stop-color="#334155"/>
      <stop offset="1" stop-color="#1e293b"/>
    </linearGradient>
    <linearGradient id="border" x1="12" y1="4" x2="38" y2="44" gradientUnits="userSpaceOnUse">
      <stop offset="0" stop-color="#22d3ee" stop-opacity="0.5"/>
      <stop offset="1" stop-color="#a78bfa" stop-opacity="0.3"/>
    </linearGradient>
  </defs>
</svg>
